<?xml version="1.0" encoding="UTF-8"?><svg id="Layer_1" xmlns="http://www.w3.org/2000/svg" viewBox="0 0 470.6323 1081"><defs><style>.cls-1{letter-spacing:-.0088em;}.cls-2{font-family:Tahoma, Tahoma;font-size:12px;}.cls-2,.cls-3,.cls-4{stroke:#fff;stroke-miterlimit:10;}.cls-3{fill:none;}.cls-5{letter-spacing:-.0229em;}.cls-6{letter-spacing:.0098em;}.cls-7{letter-spacing:-.0049em;}.cls-8{letter-spacing:-.0342em;}.cls-9{letter-spacing:-.0269em;}.cls-10{letter-spacing:-.0562em;}</style></defs><rect class="cls-3" x="152.2419" y="44.7581" width="149.8801" height="808.2581"/><rect id="ramp_outline" class="cls-3" x="154.1774" y="853.0161" width="145.1613" height="147.871"/><path class="cls-3" d="M123.8395,706.2183c-2.1158-11.1991-4.8973-27.036-7.5363-46.1177-3.9214-28.3545-5.5608-49.6497-7.3941-74.0043-1.6296-21.6485-3.3145-44.0319-3.9814-74.4094-.5491-25.0121-.9111-43.7968.9953-69.4128,1.6284-21.8805,4.1626-38.6765,5.9721-50.5066,3.7821-24.7253,8.2166-45.6373,12.0242-61.6224"/><path class="cls-3" d="M331.0806,701.129c1.7716-10.0585,4.2419-24.9299,6.6775-43.0161,7.3795-54.8015,8.8373-97.5215,9.6774-124.2581.5148-16.3847,1.1125-36.4102.4113-63.1608-.8893-33.92-3.2747-56.0559-4.1854-64.0005-1.9285-16.8234-3.9397-28.4213-4.7419-32.9032-2.5375-14.1768-5.3591-26.3264-7.8387-35.9355"/><g id="left_ticks"><line class="cls-3" x1="79.025" y1="71.9397" x2="121.6057" y2="72.1333"/><line class="cls-3" x1="79.025" y1="119.6056" x2="121.6057" y2="119.7991"/><line class="cls-3" x1="79.025" y1="167.2714" x2="121.6057" y2="167.465"/><line class="cls-3" x1="78.8088" y1="214.9373" x2="121.3894" y2="215.1308"/><line class="cls-3" x1="78.5926" y1="262.6031" x2="121.1732" y2="262.7966"/><line class="cls-3" x1="78.3668" y1="310.2689" x2="120.9474" y2="310.4625"/><line class="cls-3" x1="78.805" y1="739.2615" x2="121.3857" y2="739.455"/><line class="cls-3" x1="78.5869" y1="786.9273" x2="121.1675" y2="787.1209"/><line class="cls-3" x1="78.5869" y1="834.5932" x2="121.1675" y2="834.7867"/><line class="cls-3" x1="53.5968" y1="95.7727" x2="121.2742" y2="95.9662"/><line class="cls-3" x1="53.6511" y1="143.4385" x2="121.3285" y2="143.632"/><line class="cls-3" x1="53.5968" y1="191.1043" x2="121.2742" y2="191.2979"/><line class="cls-3" x1="53.5968" y1="238.7702" x2="121.2742" y2="238.9637"/><line class="cls-3" x1="53.5968" y1="286.436" x2="121.2742" y2="286.6296"/><line class="cls-3" x1="53.5968" y1="334.1019" x2="121.2742" y2="334.2954"/><line class="cls-3" x1="79.9839" y1="357.967" x2="116.8871" y2="358.0961"/><line class="cls-3" x1="53.5323" y1="381.929" x2="111.9839" y2="381.8"/><line class="cls-3" x1="79.9839" y1="405.6974" x2="107.2097" y2="405.6974"/><line class="cls-3" x1="53.5323" y1="429.5303" x2="104.4887" y2="429.5303"/><line class="cls-3" x1="79.0105" y1="453.4278" x2="102.4355" y2="453.2987"/><line class="cls-3" x1="53.5323" y1="477.2607" x2="101.5323" y2="477.1316"/><line class="cls-3" x1="53.5323" y1="524.862" x2="102.1774" y2="524.862"/><line class="cls-3" x1="80.0161" y1="501.0291" x2="101.7903" y2="501.0291"/><line class="cls-3" x1="80.0161" y1="548.6788" x2="102.9839" y2="548.711"/><line class="cls-3" x1="53.5323" y1="572.4633" x2="104.4887" y2="572.5924"/><line class="cls-3" x1="79.0105" y1="596.3608" x2="105.2097" y2="596.3608"/><line class="cls-3" x1="53.5968" y1="620.1937" x2="107.5323" y2="620.1937"/><line class="cls-3" x1="79.9839" y1="643.9943" x2="110.9516" y2="644.0589"/><line class="cls-3" x1="53.5968" y1="667.8595" x2="112.2419" y2="667.8595"/><line class="cls-3" x1="80.0484" y1="691.7247" x2="115.4677" y2="691.6602"/><line class="cls-3" x1="53.5968" y1="715.4931" x2="119.0161" y2="715.5576"/><line class="cls-3" x1="53.6613" y1="763.1589" x2="121.3387" y2="763.2235"/><line class="cls-3" x1="53.6613" y1="810.8248" x2="121.2742" y2="810.8893"/><line class="cls-3" x1="53.6613" y1="858.5551" x2="121.2742" y2="858.4906"/><line class="cls-3" x1="79.2412" y1="985.9322" x2="121.8219" y2="986.1258"/></g><g id="right_ticks"><line class="cls-3" x1="333.8455" y1="45.7076" x2="376.4262" y2="45.9012"/><line class="cls-3" x1="333.8455" y1="114.839" x2="376.4262" y2="115.0325"/><line class="cls-3" x1="334.0577" y1="208.979" x2="376.6383" y2="209.1726"/><line class="cls-3" x1="334.0585" y1="304.3107" x2="376.6392" y2="304.5043"/><line class="cls-3" x1="333.5687" y1="423.4753" x2="376.1493" y2="423.6689"/><line class="cls-3" x1="334.0326" y1="530.7235" x2="376.6132" y2="530.917"/><line class="cls-3" x1="334.1299" y1="637.9716" x2="376.7105" y2="638.1651"/><line class="cls-3" x1="333.8382" y1="745.2197" x2="376.4189" y2="745.4133"/><line class="cls-3" x1="334.0312" y1="851.2603" x2="376.6119" y2="851.4539"/><line class="cls-3" x1="333.9212" y1="888.2173" x2="376.5019" y2="888.4108"/><line class="cls-3" x1="333.6456" y1="982.3573" x2="376.2262" y2="982.5508"/><line class="cls-3" x1="333.6456" y1="1007.0342" x2="376.2262" y2="1007.2278"/></g><g id="center_line"><line class="cls-3" x1="227.182" y1="38.3065" x2="227.182" y2="143.4677"/><line class="cls-3" x1="227.182" y1="480.0484" x2="227.182" y2="615.3387"/><line class="cls-3" x1="227.182" y1="853.4032" x2="227.182" y2="917.4677"/><line class="cls-3" x1="227.182" y1="920.879" x2="227.182" y2="926.6129"/><line class="cls-3" x1="227.182" y1="928.8629" x2="227.182" y2="1029.9435"/><line class="cls-3" x1="227.182" y1="621.0161" x2="227.182" y2="626.7581"/><line class="cls-3" x1="227.182" y1="631.5968" x2="227.182" y2="760.1129"/><line class="cls-3" x1="227.182" y1="762.7903" x2="227.182" y2="770.5323"/><line class="cls-3" x1="227.182" y1="776.4032" x2="227.182" y2="855.8226"/><line class="cls-3" x1="227.182" y1="148.0161" x2="227.182" y2="152.9516"/><line class="cls-3" x1="227.182" y1="157.4032" x2="227.182" y2="244.8871"/><line class="cls-3" x1="227.182" y1="260.4677" x2="227.182" y2="310.4032"/><line class="cls-3" x1="227.182" y1="314.371" x2="227.182" y2="320.9516"/><line class="cls-3" x1="227.182" y1="330.1452" x2="227.182" y2="454.1129"/><line class="cls-3" x1="227.182" y1="458.6613" x2="227.182" y2="464.8548"/><line class="cls-3" x1="227.182" y1="247.6935" x2="227.182" y2="255.4355"/></g><g id="lat_markers"><line class="cls-3" x1="204.1138" y1="1005.5591" x2="204.1138" y2="1030.4623"/><line class="cls-3" x1="179.0161" y1="1005.7581" x2="179.0161" y2="1030.6613"/><line class="cls-3" x1="158.1774" y1="1005.7581" x2="158.1774" y2="1030.6613"/><line class="cls-3" x1="252.5" y1="1005.5591" x2="252.5" y2="1030.4623"/><line class="cls-3" x1="276.9839" y1="1005.5591" x2="276.9839" y2="1030.4623"/><line class="cls-3" x1="296.4841" y1="1005.5591" x2="296.4841" y2="1030.4623"/></g><g id="main_outline"><path class="cls-3" d="M331.0806,1007.6936H123.9193c0-104.5921,0-209.1841,0-313.7762,0-216.3864,0-432.7729,0-649.1593h207.1613v962.9355Z"/><path class="cls-3" d="M128.2903,1065.2419c-1.2012-10.0604-1.9005-18.2864-2.3226-24.0968-.2487-3.4235-.5541-8.469-1.1548-18.4202-.3788-6.2758-.6849-11.4652-.8936-15.0314"/><path class="cls-3" d="M326.7097,1065.5414c1.2012-10.0604,1.9005-18.2864,2.3226-24.0968.2487-3.4235.5541-8.469,1.1548-18.4202.3788-6.2758.6849-11.4652.8936-15.0314"/></g><line class="cls-3" x1="137.4839" y1="72.871" x2="137.4839" y2="83.2742"/><line class="cls-3" x1="137.4839" y1="97.6855" x2="137.4839" y2="131.9981"/><line class="cls-3" x1="137.4839" y1="148.7903" x2="137.4839" y2="183.1029"/><line class="cls-3" x1="137.4839" y1="201.5968" x2="137.4839" y2="280.1129"/><line class="cls-3" x1="137.4839" y1="296.2789" x2="137.4839" y2="351.5531"/><line class="cls-3" x1="137.4839" y1="371.8468" x2="137.4839" y2="399.4839"/><line class="cls-3" x1="137.4839" y1="416.3589" x2="137.4839" y2="451.5323"/><line class="cls-3" x1="137.4839" y1="599.5323" x2="137.4839" y2="628.5323"/><line class="cls-3" x1="137.4839" y1="647.4032" x2="137.4839" y2="671.5968"/><line class="cls-3" x1="137.4839" y1="688.7581" x2="137.4839" y2="751.4677"/><line class="cls-3" x1="137.4839" y1="767.7903" x2="137.4839" y2="805.1452"/><line class="cls-3" x1="316.629" y1="148.0161" x2="316.629" y2="189.2742"/><line class="cls-3" x1="316.9516" y1="74.0565" x2="316.9516" y2="85.4274"/><line class="cls-3" x1="316.9516" y1="207.5306" x2="316.9516" y2="301.7903"/><line class="cls-3" x1="316.9516" y1="100.3629" x2="316.9516" y2="132.5"/><line class="cls-3" x1="316.9516" y1="344.2581" x2="316.9516" y2="379.2097"/><line class="cls-3" x1="316.9516" y1="316.7984" x2="316.9516" y2="330.1452"/><line class="cls-3" x1="316.629" y1="598.2137" x2="316.629" y2="625.1452"/><line class="cls-3" x1="316.629" y1="640.873" x2="316.629" y2="670.1129"/><line class="cls-3" x1="316.629" y1="685.9194" x2="316.629" y2="752.371"/><line class="cls-3" x1="316.629" y1="770.5323" x2="316.629" y2="801.5035"/><polyline id="troop_door_right" class="cls-3" points="331.0806 747.9194 325.1774 747.9194 324.8871 708.9194 331.0806 708.8226"/><polyline id="troop_door_left" class="cls-3" points="123.9194 746.3276 129.8226 746.3276 130.1129 707.3276 123.9194 707.2308"/><line class="cls-3" x1="53.6613" y1="1006.8226" x2="121.5323" y2="1006.9516"/><polyline class="cls-3" points="164.476 44.7571 164.5225 55.0038 173.5967 54.9625 173.5501 44.7159"/><polyline class="cls-3" points="187.9378 44.587 187.9844 54.8336 197.0586 54.7924 197.012 44.5458"/><polyline class="cls-3" points="261.5374 44.7571 261.5839 55.0038 270.6581 54.9625 270.6115 44.7159"/><line class="cls-3" x1="308.1774" y1="448.8871" x2="308.1774" y2="578.8548"/><line class="cls-3" x1="140.1442" y1="66.5061" x2="140.1025" y2="66.53"/><path class="cls-3" d="M147.4111,63.2586l-18.3563,10.5377c-.6676.3833-1.4998-.0999-1.4979-.8697l.0522-21.1659c.0019-.7698.8364-1.2489,1.5021-.8623l18.3041,10.6282c.6657.3865.6633,1.3488-.0043,1.732Z"/><path class="cls-3" d="M144.9256,509.5685l-18.3563,10.5377c-.6676.3832-1.4998-.1-1.4979-.8698l.0522-21.1659c.0019-.7698.8364-1.2489,1.5021-.8623l18.3041,10.6282c.6657.3865.6633,1.3488-.0043,1.7321Z"/><path class="cls-3" d="M328.366,63.2737l-18.3563,10.5377c-.6676.3833-1.4998-.0999-1.4979-.8697l.0522-21.1659c.0019-.7698.8364-1.2489,1.5021-.8623l18.3041,10.6282c.6657.3865.6633,1.3488-.0043,1.732Z"/><path class="cls-3" d="M329.1089,511.8642l-18.3563,10.5377c-.6676.3833-1.4998-.0999-1.4979-.8697l.0522-21.1659c.0019-.7698.8364-1.2489,1.5021-.8623l18.3041,10.6282c.6657.3865.6633,1.3488-.0043,1.732Z"/><g id="circles_left"><circle class="cls-3" cx="178.2579" cy="60.4363" r="3.4185"/><circle class="cls-3" cx="203.4839" cy="60.4363" r="3.4185"/><circle class="cls-3" cx="155.6605" cy="60.4363" r="3.4185"/><circle class="cls-3" cx="178.1784" cy="82.3439" r="3.4185"/><circle class="cls-3" cx="203.4044" cy="82.3439" r="3.4185"/><circle class="cls-3" cx="155.581" cy="82.3439" r="3.4185"/><circle class="cls-3" cx="178.4361" cy="107.0779" r="3.4185"/><circle class="cls-3" cx="203.662" cy="107.0779" r="3.4185"/><circle class="cls-3" cx="155.8386" cy="107.0779" r="3.4185"/><circle class="cls-3" cx="178.2553" cy="131.3079" r="3.4185"/><circle class="cls-3" cx="203.4813" cy="131.3079" r="3.4185"/><circle class="cls-3" cx="155.6579" cy="131.3079" r="3.4185"/><circle class="cls-3" cx="178.2657" cy="154.6387" r="3.4185"/><circle class="cls-3" cx="203.4916" cy="154.6387" r="3.4185"/><circle class="cls-3" cx="155.6682" cy="154.6387" r="3.4185"/><circle class="cls-3" cx="178.2553" cy="178.4234" r="3.4185"/><circle class="cls-3" cx="203.4813" cy="178.4234" r="3.4185"/><circle class="cls-3" cx="155.6579" cy="178.4234" r="3.4185"/><circle class="cls-3" cx="178.2553" cy="202.2081" r="3.4185"/><circle class="cls-3" cx="203.4813" cy="202.2081" r="3.4185"/><circle class="cls-3" cx="155.6579" cy="202.2081" r="3.4185"/><circle class="cls-3" cx="178.2657" cy="225.9923" r="3.4185"/><circle class="cls-3" cx="203.4916" cy="225.9923" r="3.4185"/><circle class="cls-3" cx="155.6682" cy="225.9923" r="3.4185"/><circle class="cls-3" cx="178.3072" cy="250.1389" r="3.4185"/><circle class="cls-3" cx="203.5332" cy="250.1389" r="3.4185"/><circle class="cls-3" cx="155.7098" cy="250.1389" r="3.4185"/><circle class="cls-3" cx="178.3072" cy="274.6117" r="3.4185"/><circle class="cls-3" cx="203.5332" cy="274.6117" r="3.4185"/><circle class="cls-3" cx="155.7098" cy="274.6117" r="3.4185"/><circle class="cls-3" cx="178.2657" cy="299.6974" r="3.4185"/><circle class="cls-3" cx="203.4916" cy="299.6974" r="3.4185"/><circle class="cls-3" cx="155.6682" cy="299.6974" r="3.4185"/><circle class="cls-3" cx="178.2579" cy="322.3355" r="3.4185"/><circle class="cls-3" cx="203.4839" cy="322.3355" r="3.4185"/><circle class="cls-3" cx="155.6605" cy="322.3355" r="3.4185"/><circle class="cls-3" cx="178.2683" cy="346.371" r="3.4185"/><circle class="cls-3" cx="203.4942" cy="346.371" r="3.4185"/><circle class="cls-3" cx="155.6708" cy="346.371" r="3.4185"/><circle class="cls-3" cx="178.4357" cy="371.4472" r="3.4185"/><circle class="cls-3" cx="203.6617" cy="371.4472" r="3.4185"/><circle class="cls-3" cx="155.8383" cy="371.4472" r="3.4185"/><circle class="cls-3" cx="178.4357" cy="395.7258" r="3.4185"/><circle class="cls-3" cx="203.6617" cy="395.7258" r="3.4185"/><circle class="cls-3" cx="155.8383" cy="395.7258" r="3.4185"/><circle class="cls-3" cx="178.2631" cy="418.6935" r="3.4185"/><circle class="cls-3" cx="203.489" cy="418.6935" r="3.4185"/><circle class="cls-3" cx="155.6656" cy="418.6935" r="3.4185"/><circle class="cls-3" cx="178.2579" cy="444.0884" r="3.4185"/><circle class="cls-3" cx="203.4839" cy="444.0884" r="3.4185"/><circle class="cls-3" cx="155.6605" cy="444.0884" r="3.4185"/><circle class="cls-3" cx="178.3055" cy="466.3546" r="3.4185"/><circle class="cls-3" cx="203.5315" cy="466.3546" r="3.4185"/><circle class="cls-3" cx="155.7081" cy="466.3546" r="3.4185"/><circle class="cls-3" cx="178.4355" cy="488.1129" r="3.4185"/><circle class="cls-3" cx="203.6614" cy="488.1129" r="3.4185"/><circle class="cls-3" cx="155.838" cy="488.1129" r="3.4185"/><circle class="cls-3" cx="178.4355" cy="510.1774" r="3.4185"/><circle class="cls-3" cx="203.6614" cy="510.1774" r="3.4185"/><circle class="cls-3" cx="155.838" cy="510.1774" r="3.4185"/><circle class="cls-3" cx="178.6942" cy="532.5437" r="3.4185"/><circle class="cls-3" cx="203.9202" cy="532.5437" r="3.4185"/><circle class="cls-3" cx="156.0968" cy="532.5437" r="3.4185"/><circle class="cls-3" cx="178.2631" cy="556.4355" r="3.4185"/><circle class="cls-3" cx="203.489" cy="556.4355" r="3.4185"/><circle class="cls-3" cx="155.6656" cy="556.4355" r="3.4185"/><circle class="cls-3" cx="178.4364" cy="581.5968" r="3.4185"/><circle class="cls-3" cx="203.6623" cy="581.5968" r="3.4185"/><circle class="cls-3" cx="155.8389" cy="581.5968" r="3.4185"/><circle class="cls-3" cx="178.2579" cy="605.3262" r="3.4185"/><circle class="cls-3" cx="203.4839" cy="605.3262" r="3.4185"/><circle class="cls-3" cx="155.6605" cy="605.3262" r="3.4185"/><circle class="cls-3" cx="178.4364" cy="628.7078" r="3.4185"/><circle class="cls-3" cx="203.6623" cy="628.7078" r="3.4185"/><circle class="cls-3" cx="155.8389" cy="628.7078" r="3.4185"/><circle class="cls-3" cx="178.2631" cy="651.8548" r="3.4185"/><circle class="cls-3" cx="203.489" cy="651.8548" r="3.4185"/><circle class="cls-3" cx="155.6656" cy="651.8548" r="3.4185"/><circle class="cls-3" cx="178.5645" cy="677.0278" r="3.4185"/><circle class="cls-3" cx="203.7905" cy="677.0278" r="3.4185"/><circle class="cls-3" cx="155.9671" cy="677.0278" r="3.4185"/><circle class="cls-3" cx="178.2579" cy="701.0482" r="3.4185"/><circle class="cls-3" cx="203.4839" cy="701.0482" r="3.4185"/><circle class="cls-3" cx="155.6605" cy="701.0482" r="3.4185"/><circle class="cls-3" cx="178.2631" cy="725.7661" r="3.4185"/><circle class="cls-3" cx="203.489" cy="725.7661" r="3.4185"/><circle class="cls-3" cx="155.6656" cy="725.7661" r="3.4185"/><circle class="cls-3" cx="178.565" cy="750.3623" r="3.4185"/><circle class="cls-3" cx="203.7909" cy="750.3623" r="3.4185"/><circle class="cls-3" cx="155.9675" cy="750.3623" r="3.4185"/><circle class="cls-3" cx="178.4365" cy="773.7516" r="3.4185"/><circle class="cls-3" cx="203.6625" cy="773.7516" r="3.4185"/><circle class="cls-3" cx="155.839" cy="773.7516" r="3.4185"/><circle class="cls-3" cx="178.3064" cy="797.8871" r="3.4185"/><circle class="cls-3" cx="203.5324" cy="797.8871" r="3.4185"/><circle class="cls-3" cx="155.7089" cy="797.8871" r="3.4185"/><circle class="cls-3" cx="178.2579" cy="822.7514" r="3.4185"/><circle class="cls-3" cx="203.4839" cy="822.7514" r="3.4185"/><circle class="cls-3" cx="155.6605" cy="822.7514" r="3.4185"/><circle class="cls-3" cx="178.565" cy="847.4121" r="3.4185"/><circle class="cls-3" cx="203.7909" cy="847.4121" r="3.4185"/><circle class="cls-3" cx="155.9675" cy="847.4121" r="3.4185"/></g><g id="circles_right"><circle class="cls-3" cx="276.1112" cy="60.4363" r="3.4185"/><circle class="cls-3" cx="250.8853" cy="60.4363" r="3.4185"/><circle class="cls-3" cx="298.7087" cy="60.4363" r="3.4185"/><circle class="cls-3" cx="276.1907" cy="82.3439" r="3.4185"/><circle class="cls-3" cx="250.9648" cy="82.3439" r="3.4185"/><circle class="cls-3" cx="298.7882" cy="82.3439" r="3.4185"/><circle class="cls-3" cx="275.9331" cy="107.0779" r="3.4185"/><circle class="cls-3" cx="250.7071" cy="107.0779" r="3.4185"/><circle class="cls-3" cx="298.5305" cy="107.0779" r="3.4185"/><circle class="cls-3" cx="276.1138" cy="131.3079" r="3.4185"/><circle class="cls-3" cx="250.8879" cy="131.3079" r="3.4185"/><circle class="cls-3" cx="298.7113" cy="131.3079" r="3.4185"/><circle class="cls-3" cx="276.1035" cy="154.6387" r="3.4185"/><circle class="cls-3" cx="250.8775" cy="154.6387" r="3.4185"/><circle class="cls-3" cx="298.701" cy="154.6387" r="3.4185"/><circle class="cls-3" cx="276.1138" cy="178.4234" r="3.4185"/><circle class="cls-3" cx="250.8879" cy="178.4234" r="3.4185"/><circle class="cls-3" cx="298.7113" cy="178.4234" r="3.4185"/><circle class="cls-3" cx="276.1138" cy="202.2081" r="3.4185"/><circle class="cls-3" cx="250.8879" cy="202.2081" r="3.4185"/><circle class="cls-3" cx="298.7113" cy="202.2081" r="3.4185"/><circle class="cls-3" cx="276.1035" cy="225.9923" r="3.4185"/><circle class="cls-3" cx="250.8775" cy="225.9923" r="3.4185"/><circle class="cls-3" cx="298.701" cy="225.9923" r="3.4185"/><circle class="cls-3" cx="276.062" cy="250.1389" r="3.4185"/><circle class="cls-3" cx="250.836" cy="250.1389" r="3.4185"/><circle class="cls-3" cx="298.6594" cy="250.1389" r="3.4185"/><circle class="cls-3" cx="276.062" cy="274.6117" r="3.4185"/><circle class="cls-3" cx="250.836" cy="274.6117" r="3.4185"/><circle class="cls-3" cx="298.6594" cy="274.6117" r="3.4185"/><circle class="cls-3" cx="276.1035" cy="299.6974" r="3.4185"/><circle class="cls-3" cx="250.8775" cy="299.6974" r="3.4185"/><circle class="cls-3" cx="298.701" cy="299.6974" r="3.4185"/><circle class="cls-3" cx="276.1112" cy="322.3355" r="3.4185"/><circle class="cls-3" cx="250.8853" cy="322.3355" r="3.4185"/><circle class="cls-3" cx="298.7087" cy="322.3355" r="3.4185"/><circle class="cls-3" cx="276.1009" cy="346.371" r="3.4185"/><circle class="cls-3" cx="250.875" cy="346.371" r="3.4185"/><circle class="cls-3" cx="298.6984" cy="346.371" r="3.4185"/><circle class="cls-3" cx="275.9334" cy="371.4472" r="3.4185"/><circle class="cls-3" cx="250.7075" cy="371.4472" r="3.4185"/><circle class="cls-3" cx="298.5309" cy="371.4472" r="3.4185"/><circle class="cls-3" cx="275.9334" cy="395.7258" r="3.4185"/><circle class="cls-3" cx="250.7075" cy="395.7258" r="3.4185"/><circle class="cls-3" cx="298.5309" cy="395.7258" r="3.4185"/><circle class="cls-3" cx="276.1061" cy="418.6935" r="3.4185"/><circle class="cls-3" cx="250.8801" cy="418.6935" r="3.4185"/><circle class="cls-3" cx="298.7035" cy="418.6935" r="3.4185"/><circle class="cls-3" cx="276.1212" cy="444.0884" r="3.4185"/><circle class="cls-3" cx="250.8952" cy="444.0884" r="3.4185"/><circle class="cls-3" cx="298.7186" cy="444.0884" r="3.4185"/><circle class="cls-3" cx="276.0636" cy="466.3546" r="3.4185"/><circle class="cls-3" cx="250.8377" cy="466.3546" r="3.4185"/><circle class="cls-3" cx="298.6611" cy="466.3546" r="3.4185"/><circle class="cls-3" cx="275.9337" cy="488.1129" r="3.4185"/><circle class="cls-3" cx="250.7077" cy="488.1129" r="3.4185"/><circle class="cls-3" cx="298.5311" cy="488.1129" r="3.4185"/><circle class="cls-3" cx="275.9337" cy="510.1774" r="3.4185"/><circle class="cls-3" cx="250.7077" cy="510.1774" r="3.4185"/><circle class="cls-3" cx="298.5311" cy="510.1774" r="3.4185"/><circle class="cls-3" cx="275.675" cy="532.5437" r="3.4185"/><circle class="cls-3" cx="250.449" cy="532.5437" r="3.4185"/><circle class="cls-3" cx="298.2724" cy="532.5437" r="3.4185"/><circle class="cls-3" cx="276.1061" cy="556.4355" r="3.4185"/><circle class="cls-3" cx="250.8801" cy="556.4355" r="3.4185"/><circle class="cls-3" cx="298.7035" cy="556.4355" r="3.4185"/><circle class="cls-3" cx="275.9328" cy="581.5968" r="3.4185"/><circle class="cls-3" cx="250.7068" cy="581.5968" r="3.4185"/><circle class="cls-3" cx="298.5302" cy="581.5968" r="3.4185"/><circle class="cls-3" cx="276.1112" cy="605.3262" r="3.4185"/><circle class="cls-3" cx="250.8853" cy="605.3262" r="3.4185"/><circle class="cls-3" cx="298.7087" cy="605.3262" r="3.4185"/><circle class="cls-3" cx="275.9328" cy="628.7078" r="3.4185"/><circle class="cls-3" cx="250.7068" cy="628.7078" r="3.4185"/><circle class="cls-3" cx="298.5302" cy="628.7078" r="3.4185"/><circle class="cls-3" cx="276.1061" cy="651.8548" r="3.4185"/><circle class="cls-3" cx="250.8801" cy="651.8548" r="3.4185"/><circle class="cls-3" cx="298.7035" cy="651.8548" r="3.4185"/><circle class="cls-3" cx="275.8046" cy="677.0278" r="3.4185"/><circle class="cls-3" cx="250.5787" cy="677.0278" r="3.4185"/><circle class="cls-3" cx="298.4021" cy="677.0278" r="3.4185"/><circle class="cls-3" cx="276.1112" cy="701.0482" r="3.4185"/><circle class="cls-3" cx="250.8853" cy="701.0482" r="3.4185"/><circle class="cls-3" cx="298.7087" cy="701.0482" r="3.4185"/><circle class="cls-3" cx="276.1061" cy="725.7661" r="3.4185"/><circle class="cls-3" cx="250.8801" cy="725.7661" r="3.4185"/><circle class="cls-3" cx="298.7035" cy="725.7661" r="3.4185"/><circle class="cls-3" cx="275.8042" cy="750.3623" r="3.4185"/><circle class="cls-3" cx="250.5783" cy="750.3623" r="3.4185"/><circle class="cls-3" cx="298.4017" cy="750.3623" r="3.4185"/><circle class="cls-3" cx="275.9327" cy="773.7516" r="3.4185"/><circle class="cls-3" cx="250.7067" cy="773.7516" r="3.4185"/><circle class="cls-3" cx="298.5301" cy="773.7516" r="3.4185"/><circle class="cls-3" cx="276.0628" cy="797.8871" r="3.4185"/><circle class="cls-3" cx="250.8368" cy="797.8871" r="3.4185"/><circle class="cls-3" cx="298.6602" cy="797.8871" r="3.4185"/><circle class="cls-3" cx="276.1112" cy="822.7514" r="3.4185"/><circle class="cls-3" cx="250.8853" cy="822.7514" r="3.4185"/><circle class="cls-3" cx="298.7087" cy="822.7514" r="3.4185"/><circle class="cls-3" cx="275.8042" cy="847.4121" r="3.4185"/><circle class="cls-3" cx="250.5783" cy="847.4121" r="3.4185"/><circle class="cls-3" cx="298.4017" cy="847.4121" r="3.4185"/></g><g id="left_side_circle_column"><circle class="cls-3" cx="137.4839" cy="192.3533" r="3.4185"/><circle class="cls-3" cx="137.4839" cy="90.3533" r="3.4185"/><circle class="cls-3" cx="137.4839" cy="140.3533" r="3.4185"/><circle class="cls-3" cx="137.4839" cy="408.9839" r="3.4185"/><circle class="cls-3" cx="137.4839" cy="286.8549" r="3.4185"/><circle class="cls-3" cx="137.4839" cy="360.0807" r="3.4185"/><circle class="cls-3" cx="137.4839" cy="639.8407" r="3.4185"/><circle class="cls-3" cx="137.4839" cy="680.4464" r="3.4185"/><circle class="cls-3" cx="137.4839" cy="760.1129" r="3.4185"/><circle class="cls-3" cx="137.4839" cy="812.1774" r="3.4185"/></g><g id="circles_center"><circle class="cls-3" cx="227.2177" cy="132.5" r="3.4185"/><circle class="cls-3" cx="227.182" cy="155.2153" r="3.4185"/><circle class="cls-3" cx="227.182" cy="178.823" r="3.4185"/><circle class="cls-3" cx="227.2177" cy="202.7859" r="3.4185"/><circle class="cls-3" cx="227.2177" cy="226.392" r="3.4185"/><circle class="cls-3" cx="227.182" cy="250.3565" r="3.4185"/><circle class="cls-3" cx="227.182" cy="275.0113" r="3.4185"/><circle class="cls-3" cx="227.182" cy="299.4469" r="3.4185"/><circle class="cls-3" cx="227.2177" cy="322.7352" r="3.4185"/><circle class="cls-3" cx="227.182" cy="346.8211" r="3.4185"/><circle class="cls-3" cx="227.182" cy="371.8468" r="3.4185"/><circle class="cls-3" cx="227.182" cy="395.7258" r="3.4185"/><circle class="cls-3" cx="227.182" cy="418.6935" r="3.4185"/><circle class="cls-3" cx="227.182" cy="444.0884" r="3.4185"/><circle class="cls-3" cx="227.182" cy="466.3546" r="3.4185"/><circle class="cls-3" cx="227.182" cy="488.1129" r="3.4185"/><circle class="cls-3" cx="227.182" cy="510.1774" r="3.4185"/><circle class="cls-3" cx="227.182" cy="532.4194" r="3.4185"/><circle class="cls-3" cx="227.182" cy="556.8107" r="3.4185"/><circle class="cls-3" cx="227.182" cy="581.5968" r="3.4185"/><circle class="cls-3" cx="227.182" cy="605.5323" r="3.4185"/><circle class="cls-3" cx="227.182" cy="628.5323" r="3.4185"/><circle class="cls-3" cx="227.182" cy="651.8548" r="3.4185"/><circle class="cls-3" cx="227.182" cy="677.0278" r="3.4185"/><circle class="cls-3" cx="227.182" cy="701.129" r="3.4185"/><circle class="cls-3" cx="227.182" cy="725.7661" r="3.4185"/><circle class="cls-3" cx="227.182" cy="750.2742" r="3.4185"/><circle class="cls-3" cx="227.182" cy="773.7516" r="3.4185"/><circle class="cls-3" cx="227.182" cy="797.8871" r="3.4185"/><circle class="cls-3" cx="227.182" cy="823.3313" r="3.4185"/><circle class="cls-3" cx="227.182" cy="847.4121" r="3.4185"/><circle class="cls-3" cx="227.2177" cy="107.2936" r="3.4185"/><circle class="cls-3" cx="227.182" cy="82.4803" r="3.4185"/></g><path class="cls-4" d="M137.4839,90.3533v-3.4185c-1.6522,0-3.0797,1.1978-3.3666,2.8249-.3257,1.8469.9261,3.6346,2.773,3.9602.196.0346.3946.0519.5936.0519v-3.4185Z"/><path class="cls-4" d="M137.4839,140.3533v-3.4185c-1.6522,0-3.0797,1.1978-3.3666,2.8249-.3257,1.8469.9261,3.6346,2.773,3.9602.196.0346.3946.0519.5936.0519v-3.4185Z"/><path class="cls-4" d="M137.4839,192.3533v-3.4185c-1.6522,0-3.0797,1.1978-3.3666,2.8249-.3257,1.8469.9261,3.6346,2.773,3.9602.196.0346.3946.0519.5936.0519v-3.4185Z"/><path class="cls-4" d="M137.4839,286.8549v-3.4185c-1.6522,0-3.0797,1.1978-3.3666,2.8249-.3257,1.8469.9261,3.6346,2.773,3.9602.196.0346.3946.0519.5936.0519v-3.4185Z"/><path class="cls-4" d="M137.4835,360.0807v-3.4185c-1.6522,0-3.0797,1.1978-3.3666,2.8249-.3257,1.8469.9261,3.6346,2.773,3.9602.196.0346.3946.0519.5936.0519v-3.4185Z"/><path class="cls-4" d="M137.4835,408.9839v-3.4185c-1.6522,0-3.0797,1.1978-3.3666,2.8249-.3257,1.8469.9261,3.6346,2.773,3.9602.196.0346.3946.0519.5936.0519v-3.4185Z"/><path class="cls-4" d="M137.4835,639.8407v-3.4185c-1.6522,0-3.0797,1.1978-3.3666,2.8249-.3257,1.8469.9261,3.6346,2.773,3.9602.196.0346.3946.0519.5936.0519v-3.4185Z"/><path class="cls-4" d="M137.4835,680.4464v-3.4185c-1.6522,0-3.0797,1.1978-3.3666,2.8249-.3257,1.8469.9261,3.6346,2.773,3.9602.196.0346.3946.0519.5936.0519v-3.4185Z"/><path class="cls-4" d="M137.4835,760.1129v-3.4185c-1.6522,0-3.0797,1.1978-3.3666,2.8249-.3257,1.8469.9261,3.6346,2.773,3.9602.196.0346.3946.0519.5936.0519v-3.4185Z"/><path class="cls-4" d="M137.4835,812.1774v-3.4185c-1.6522,0-3.0797,1.1978-3.3666,2.8249-.3257,1.8469.9261,3.6346,2.773,3.9602.196.0346.3946.0519.5936.0519v-3.4185Z"/><circle class="cls-3" cx="316.9516" cy="92.824" r="3.4185"/><path class="cls-4" d="M317.0883,92.824v-3.4185c-1.6522,0-3.0797,1.1978-3.3666,2.8249-.3257,1.8469.9261,3.6346,2.773,3.9602.196.0346.3946.0519.5936.0519v-3.4185Z"/><circle class="cls-3" cx="316.629" cy="140.3533" r="3.4185"/><path class="cls-4" d="M316.7657,140.3533v-3.4185c-1.6522,0-3.0797,1.1978-3.3666,2.8249-.3257,1.8469.9261,3.6346,2.773,3.9602.196.0346.3946.0519.5936.0519v-3.4185Z"/><circle class="cls-3" cx="317.0883" cy="199.0277" r="3.4185"/><path class="cls-4" d="M317.225,199.0277v-3.4185c-1.6522,0-3.0797,1.1978-3.3666,2.8249-.3257,1.8469.9261,3.6346,2.773,3.9602.196.0346.3946.0519.5936.0519v-3.4185Z"/><circle class="cls-3" cx="317.225" cy="309.3326" r="3.4185"/><path class="cls-4" d="M317.3616,309.3326v-3.4185c-1.6522,0-3.0797,1.1978-3.3666,2.8249-.3257,1.8469.9261,3.6346,2.773,3.9602.196.0346.3946.0519.5936.0519v-3.4185Z"/><circle class="cls-3" cx="316.9516" cy="337.8549" r="3.4185"/><path class="cls-4" d="M317.0883,337.8549v-3.4185c-1.6522,0-3.0797,1.1978-3.3666,2.8249-.3257,1.8469.9261,3.6346,2.773,3.9602.196.0346.3946.0519.5936.0519v-3.4185Z"/><circle class="cls-3" cx="316.9516" cy="385.6653" r="3.4185"/><path class="cls-4" d="M317.0883,385.6653v-3.4185c-1.6522,0-3.0797,1.1978-3.3666,2.8249-.3257,1.8469.9261,3.6346,2.773,3.9602.196.0346.3946.0519.5936.0519v-3.4185Z"/><circle class="cls-3" cx="316.629" cy="633.0037" r="3.4185"/><path class="cls-4" d="M316.7657,633.0037v-3.4185c-1.6522,0-3.0797,1.1978-3.3666,2.8249-.3257,1.8469.9261,3.6346,2.773,3.9602.196.0346.3946.0519.5936.0519v-3.4185Z"/><circle class="cls-3" cx="316.629" cy="678.5645" r="3.4185"/><path class="cls-4" d="M316.7657,678.5645v-3.4185c-1.6522,0-3.0797,1.1978-3.3666,2.8249-.3257,1.8469.9261,3.6346,2.773,3.9602.196.0346.3946.0519.5936.0519v-3.4185Z"/><circle class="cls-3" cx="316.629" cy="761.9194" r="3.4185"/><path class="cls-4" d="M316.7657,761.9194v-3.4185c-1.6522,0-3.0797,1.1978-3.3666,2.8249-.3257,1.8469.9261,3.6346,2.773,3.9602.196.0346.3946.0519.5936.0519v-3.4185Z"/><circle class="cls-3" cx="316.7657" cy="813.5323" r="3.4185"/><path class="cls-4" d="M316.9024,813.5323v-3.4185c-1.6522,0-3.0797,1.1978-3.3666,2.8249-.3257,1.8469.9261,3.6346,2.773,3.9602.196.0346.3946.0519.5936.0519v-3.4185Z"/><circle class="cls-4" cx="276.9516" cy="880.629" r="3.4185"/><circle class="cls-4" cx="252.5645" cy="880.629" r="3.4185"/><circle class="cls-4" cx="227.182" cy="880.629" r="3.4185"/><circle class="cls-4" cx="204.3548" cy="880.629" r="3.4185"/><circle class="cls-4" cx="178.565" cy="880.629" r="3.4185"/><circle class="cls-4" cx="276.9516" cy="907.2097" r="3.4185"/><circle class="cls-4" cx="252.5645" cy="907.2097" r="3.4185"/><circle class="cls-4" cx="227.182" cy="907.2097" r="3.4185"/><circle class="cls-4" cx="204.3548" cy="907.2097" r="3.4185"/><circle class="cls-4" cx="178.565" cy="907.2097" r="3.4185"/><circle class="cls-4" cx="276.9444" cy="935.7581" r="3.4185"/><circle class="cls-4" cx="252.5573" cy="935.7581" r="3.4185"/><circle class="cls-4" cx="227.1748" cy="935.7581" r="3.4185"/><circle class="cls-4" cx="204.3476" cy="935.7581" r="3.4185"/><circle class="cls-4" cx="178.5577" cy="935.7581" r="3.4185"/><circle class="cls-4" cx="227.1748" cy="964.5968" r="3.4185"/><circle class="cls-4" cx="227.1748" cy="994.4032" r="3.4185"/><circle class="cls-4" cx="276.9444" cy="964.5968" r="3.4185"/><circle class="cls-4" cx="178.565" cy="964.5968" r="3.4185"/><circle class="cls-4" cx="178.5577" cy="994.4032" r="3.4185"/><circle class="cls-4" cx="204.3548" cy="994.4032" r="3.4185"/><circle class="cls-4" cx="252.5645" cy="994.4032" r="3.4185"/><circle class="cls-4" cx="276.1112" cy="994.4032" r="3.4185"/><circle class="cls-4" cx="158.1774" cy="990.3251" r="3.4185"/><circle class="cls-4" cx="158.1774" cy="958.7903" r="3.4185"/><circle class="cls-4" cx="158.1774" cy="930.3701" r="3.4185"/><circle class="cls-4" cx="158.1774" cy="900.3726" r="3.4185"/><circle class="cls-4" cx="158.1774" cy="873.792" r="3.4185"/><circle class="cls-4" cx="296.4841" cy="990.3251" r="3.4185"/><circle class="cls-4" cx="296.4841" cy="958.7903" r="3.4185"/><circle class="cls-4" cx="296.4841" cy="930.3701" r="3.4185"/><circle class="cls-4" cx="296.4841" cy="900.3726" r="3.4185"/><circle class="cls-4" cx="296.4841" cy="873.792" r="3.4185"/><circle class="cls-3" cx="308.1774" cy="582.2734" r="3.4185"/><path class="cls-4" d="M308.3141,582.2734v-3.4185c-1.6522,0-3.0797,1.1978-3.3666,2.8249-.3257,1.8469.9261,3.6346,2.773,3.9602.196.0346.3946.0519.5936.0519v-3.4185Z"/><circle class="cls-3" cx="148.8234" cy="582.2734" r="3.4185"/><path class="cls-4" d="M148.9601,582.2734v-3.4185c-1.6522,0-3.0797,1.1978-3.3666,2.8249-.3257,1.8469.9261,3.6346,2.773,3.9602.196.0346.3946.0519.5936.0519v-3.4185Z"/><circle class="cls-3" cx="148.8234" cy="534.5362" r="3.4185"/><path class="cls-4" d="M148.9601,534.5362v-3.4185c-1.6522,0-3.0797,1.1978-3.3666,2.8249-.3257,1.8469.9261,3.6346,2.773,3.9602.196.0346.3946.0519.5936.0519v-3.4185Z"/><circle class="cls-3" cx="308.3141" cy="535.9622" r="3.4185"/><path class="cls-4" d="M308.4508,535.9622v-3.4185c-1.6522,0-3.0797,1.1978-3.3666,2.8249-.3257,1.8469.9261,3.6346,2.773,3.9602.196.0346.3946.0519.5936.0519v-3.4185Z"/><circle class="cls-3" cx="308.3141" cy="484.6944" r="3.4185"/><path class="cls-4" d="M308.4508,484.6944v-3.4185c-1.6522,0-3.0797,1.1978-3.3666,2.8249-.3257,1.8469.9261,3.6346,2.773,3.9602.196.0346.3946.0519.5936.0519v-3.4185Z"/><circle class="cls-3" cx="148.8234" cy="484.6944" r="3.4185"/><path class="cls-4" d="M148.9601,484.6944v-3.4185c-1.6522,0-3.0797,1.1978-3.3666,2.8249-.3257,1.8469.9261,3.6346,2.773,3.9602.196.0346.3946.0519.5936.0519v-3.4185Z"/><circle class="cls-3" cx="308.1774" cy="445.4686" r="3.4185"/><path class="cls-4" d="M308.3141,445.4686v-3.4185c-1.6522,0-3.0797,1.1978-3.3666,2.8249-.3257,1.8469.9261,3.6346,2.773,3.9602.196.0346.3946.0519.5936.0519v-3.4185Z"/><circle class="cls-3" cx="148.8234" cy="445.4686" r="3.4185"/><path class="cls-4" d="M148.9601,445.4686v-3.4185c-1.6522,0-3.0797,1.1978-3.3666,2.8249-.3257,1.8469.9261,3.6346,2.773,3.9602.196.0346.3946.0519.5936.0519v-3.4185Z"/><path class="cls-4" d="M147.3423,449.421l-.1517,10.2148c-.0024.16-.1523.2766-.308.2395l-4.3229-1.031c-.1556-.0371-.2368-.2088-.1667-.3527l4.4747-9.1838c.117-.2402.4786-.154.4747.1132Z"/><path class="cls-4" d="M146.0367,487.8179l-4.8005,8.8466c-.0765.1409-.2639.1744-.3845.0688l-3.3405-2.928c-.1206-.1057-.1119-.2959.0178-.3902l8.1411-5.9186c.2154-.1566.4938.0873.3667.3214Z"/><path class="cls-4" d="M146.5701,531.4582l-7.2628-6.5494c-.1196-.1078-.1075-.2989.0246-.3908l3.6424-2.5355c.1321-.092.3155-.0369.3751.1126l3.6205,9.0849c.098.2458-.2032.4554-.3997.2782Z"/><path class="cls-4" d="M147.42,578.4718l-4.9142-8.4554c-.0809-.1392-.0111-.3174.1428-.3646l4.2429-1.3013c.1539-.0472.3117.0612.3227.2219l.6713,9.7567c.0182.264-.3326.3716-.4656.1428Z"/><path class="cls-4" d="M309.5558,532.3812l2.1723-9.5354c.0358-.157.2084-.2397.3531-.1693l3.9906,1.9419c.1448.0704.1862.2573.0847.3823l-6.1629,7.5935c-.1667.2055-.4966.0449-.4379-.2131Z"/><path class="cls-4" d="M310.2492,487.7414l4.9142,8.4554c.0809.1392.0111.3174-.1428.3646l-4.2429,1.3013c-.1539.0472-.3117-.0612-.3227-.2219l-.6713-9.7567c-.0182-.264.3326-.3716.4656-.1428Z"/><path class="cls-4" d="M309.7414,448.7603l4.3222,8.7728c.0711.1444-.0107.3174-.1675.354l-4.3222,1.007c-.1568.0365-.3067-.0825-.3067-.2435v-9.7797c0-.2646.3573-.3478.4743-.1105Z"/><path class="cls-4" d="M144.5645,458.7581c-2.2253,6.5178-4.4071,13.2966-6.5162,20.3303-2.2133,7.3813-4.2053,14.5723-6,21.5488"/><path class="cls-4" d="M139.8387,494.3709c-1.8495,2.4516-3.6989,4.9033-5.5484,7.3549"/><path class="cls-4" d="M141.6532,524.1935c-1.9785-3.1183-3.957-6.2365-5.9355-9.3548"/><path class="cls-4" d="M144.9516,569.8306c-1.4094-6.1087-3.1121-13.503-4.5162-19.6129-2.5897-11.269-5.1703-22.5378-7.7419-33.8065"/><path class="cls-4" d="M312.5,496.3065l1.5645,5.0878"/><path class="cls-4" d="M313.7096,523.8871c.4517-1.4032.9032-2.8065,1.3549-4.2097"/><path class="cls-4" d="M311.5806,457.9839c.795,6.1436,1.5394,12.4026,2.2258,18.7742.9497,8.8147,1.7455,17.4459,2.4043,25.8823"/><path class="cls-4" d="M311.2096,569.1452c2.338-17.0107,4.6759-34.0214,7.0139-51.0321"/><text class="cls-2" transform="translate(56.8152 72.0367)"><tspan x="0" y="0">357</tspan></text><text class="cls-2" transform="translate(33.9885 95.8694)"><tspan x="0" y="0">377</tspan></text><text class="cls-2" transform="translate(32.3334 142.7645)"><tspan x="0" y="0">417</tspan></text><text class="cls-2" transform="translate(30.2047 191.2013)"><tspan x="0" y="0">457</tspan></text><text class="cls-2" transform="translate(32.5731 238.8668)"><tspan x="0" y="0">497</tspan></text><text class="cls-2" transform="translate(30.2051 285.4354)"><tspan x="0" y="0">537</tspan></text><text class="cls-2" transform="translate(33.0653 334.1986)"><tspan x="0" y="0">577</tspan></text><text class="cls-2" transform="translate(33.3049 382.2468)"><tspan x="0" y="0">617</tspan></text><text class="cls-2" transform="translate(29.7009 429.5302)"><tspan x="0" y="0">657</tspan></text><text class="cls-2" transform="translate(31.2506 477.3206)"><tspan x="0" y="0">697</tspan></text><text class="cls-2" transform="translate(34.8759 524.1935)"><tspan x="0" y="0">737</tspan></text><text class="cls-2" transform="translate(34.8761 572.5275)"><tspan x="0" y="0">777</tspan></text><text class="cls-2" transform="translate(34.4437 620.1941)"><tspan x="0" y="0">817</tspan></text><text class="cls-2" transform="translate(33.5561 667.8597)"><tspan x="0" y="0">857</tspan></text><text class="cls-2" transform="translate(33.5562 715.5257)"><tspan x="0" y="0">897</tspan></text><text class="cls-2" transform="translate(33.556 762.7903)"><tspan x="0" y="0">937</tspan></text><text class="cls-2" transform="translate(33.9882 810.8575)"><tspan x="0" y="0">977</tspan></text><text class="cls-2" transform="translate(27.6077 858.58)"><tspan x="0" y="0">1017</tspan></text><text class="cls-2" transform="translate(25.3576 1007.694)"><tspan x="0" y="0">1141</tspan></text><text class="cls-2" transform="translate(59.7289 119.7025)"><tspan x="0" y="0">397</tspan></text><text class="cls-2" transform="translate(56.5753 167.3681)"><tspan x="0" y="0">437</tspan></text><text class="cls-2" transform="translate(56.8152 215.0341)"><tspan x="0" y="0">477</tspan></text><text class="cls-2" transform="translate(58.2786 262.6998)"><tspan x="0" y="0">517</tspan></text><text class="cls-2" transform="translate(57.5466 310.4034)"><tspan x="0" y="0">557</tspan></text><text class="cls-2" transform="translate(59.2254 358.0316)"><tspan x="0" y="0">597</tspan></text><text class="cls-2" transform="translate(59.2251 405.5655)"><tspan x="0" y="0">637</tspan></text><text class="cls-2" transform="translate(58.0378 451.5324)"><tspan x="0" y="0">677</tspan></text><text class="cls-2" transform="translate(58.0378 500.637)"><tspan x="0" y="0">717</tspan></text><text class="cls-2" transform="translate(58.3497 548.6948)"><tspan x="0" y="0">757</tspan></text><text class="cls-2" transform="translate(58.0376 596.361)"><tspan x="0" y="0">797</tspan></text><text class="cls-2" transform="translate(61.9113 644.0266)"><tspan x="0" y="0">837</tspan></text><text class="cls-2" transform="translate(61.479 691.7587)"><tspan x="0" y="0">877</tspan></text><text class="cls-2" transform="translate(60.3628 739.538)"><tspan x="0" y="0">917</tspan></text><text class="cls-2" transform="translate(58.8292 787.0238)"><tspan x="0" y="0">957</tspan></text><text class="cls-2" transform="translate(58.0375 834.6898)"><tspan x="0" y="0">997</tspan></text><text class="cls-2" transform="translate(51.7374 986.0286)"><tspan x="0" y="0">1124</tspan></text><text class="cls-2" transform="translate(357.7415 83.2741)"><tspan x="0" y="0">C</tspan></text><text class="cls-2" transform="translate(358.6293 155.2152)"><tspan x="0" y="0">D</tspan></text><text class="cls-2" transform="translate(357.7414 257.6189)"><tspan x="0" y="0">E</tspan></text><text class="cls-2" transform="translate(357.7414 366.3732)"><tspan x="0" y="0">F</tspan></text><text class="cls-2" transform="translate(357.7414 484.6946)"><tspan x="0" y="0">G</tspan></text><text class="cls-2" transform="translate(357.8976 585.7293)"><tspan x="0" y="0">H</tspan></text><text class="cls-2" transform="translate(356.4038 688.7584)"><tspan x="0" y="0">I</tspan></text><text class="cls-2" transform="translate(358.245 797.8873)"><tspan x="0" y="0">J</tspan></text><text class="cls-2" transform="translate(354.8586 873.7916)"><tspan x="0" y="0">K</tspan></text><text class="cls-2" transform="translate(355.5165 1001.2007)"><tspan x="0" y="0">M</tspan></text><text class="cls-2" transform="translate(357.3577 935.7579)"><tspan x="0" y="0">L</tspan></text><text class="cls-2" transform="translate(380.5051 45.9846)"><tspan x="0" y="0">335</tspan></text><text class="cls-2" transform="translate(379.6422 114.9356)"><tspan x="0" y="0">393</tspan></text><text class="cls-2" transform="translate(379.7614 209.0759)"><tspan x="0" y="0">472</tspan></text><text class="cls-2" transform="translate(379.553 304.4075)"><tspan x="0" y="0">552</tspan></text><text class="cls-2" transform="translate(379.5525 423.572)"><tspan x="0" y="0">652</tspan></text><text class="cls-2" transform="translate(379.9295 531.1178)"><tspan x="0" y="0">742</tspan></text><text class="cls-2" transform="translate(380.8726 638.0682)"><tspan x="0" y="0">832</tspan></text><text class="cls-2" transform="translate(379.1566 744.4381)"><tspan x="0" y="0">922</tspan></text><text class="cls-2" transform="translate(379.5524 981.422)"><tspan x="0" y="0">1121</tspan></text><text class="cls-2" transform="translate(379.5528 850.9597)"><tspan x="0" y="0">1011</tspan></text><text class="cls-2" transform="translate(379.5525 888.3137)"><tspan x="0" y="0">1042</tspan></text><text class="cls-2" transform="translate(379.5526 1007.1308)"><tspan x="0" y="0">1141</tspan></text><path class="cls-4" d="M367.3536,145.6564l7.1391-6.684c.1175-.11.3069-.0819.3874.0575l2.219,3.8434c.0805.1394.0102.3175-.1439.3642l-9.3581,2.8406c-.2532.0769-.4366-.2409-.2435-.4217Z"/><text class="cls-2" transform="translate(130.8648 58.6704) rotate(90)"><tspan x="0" y="0">2</tspan></text><text class="cls-2" transform="translate(311.1695 58.4352) rotate(90)"><tspan x="0" y="0">2</tspan></text><text class="cls-2" transform="translate(312.4038 507.1461) rotate(90)"><tspan x="0" y="0">1</tspan></text><text class="cls-2" transform="translate(128.2447 505.0305) rotate(90)"><tspan x="0" y="0">1</tspan></text><text class="cls-2" transform="translate(206.8227 35.3066)"><tspan x="0" y="0">0.0</tspan></text><text class="cls-2" transform="translate(229.6758 35.3063)"><tspan x="0" y="0">BL</tspan></text><text class="cls-2" transform="translate(154.5797 1043.8547)"><tspan x="0" y="0">A</tspan></text><text class="cls-2" transform="translate(175.48 1043.8543)"><tspan x="0" y="0">B</tspan></text><text class="cls-2" transform="translate(200.5101 1043.855)"><tspan x="0" y="0">C</tspan></text><text class="cls-2" transform="translate(223.1129 1043.8542)"><tspan x="0" y="0">D</tspan></text><text class="cls-2" transform="translate(249.1982 1043.8543)"><tspan x="0" y="0">E</tspan></text><text class="cls-2" transform="translate(273.8548 1043.8552)"><tspan x="0" y="0">F</tspan></text><text class="cls-2" transform="translate(292.4794 1043.8543)"><tspan x="0" y="0">G</tspan></text><text class="cls-2" transform="translate(51.2815 900.5519)"><tspan class="cls-1" x="0" y="0">L</tspan><tspan x="5.8652" y="0">OAD</tspan><tspan x="0" y="14.4004">S</tspan><tspan class="cls-10" x="6.6855" y="14.4004">TA</tspan><tspan x="19.541" y="14.4004">TION</tspan></text><text class="cls-2" transform="translate(405.8067 19.6113) rotate(90)"><tspan class="cls-1" x="0" y="0">L</tspan><tspan x="5.8652" y="0">OAD S</tspan><tspan class="cls-10" x="40.125" y="0">T</tspan><tspan x="46.459" y="0">A</tspan></text><text class="cls-2" transform="translate(439.6582 19.7237) rotate(90)"><tspan class="cls-1" x="0" y="0">L</tspan><tspan x="5.8652" y="0">OAD</tspan><tspan x="0" y="14.4004">COM</tspan><tspan class="cls-5" x="24.9434" y="14.4004">P</tspan><tspan x="31.2832" y="14.4004">A</tspan><tspan class="cls-9" x="38.4785" y="14.4004">R</tspan><tspan x="45.6035" y="14.4004">TMEN</tspan><tspan class="cls-7" x="76.5996" y="14.4004">T</tspan><tspan x="83.5488" y="14.4004">S</tspan></text><line class="cls-3" x1="375.8871" y1="141.0968" x2="428.4207" y2="111.0708"/><text class="cls-2" transform="translate(417.7442 649.3234) rotate(90)"><tspan class="cls-5" x="0" y="0">P</tspan><tspan x="6.3398" y="0">AR</tspan><tspan class="cls-10" x="20.9824" y="0">A</tspan><tspan x="27.5039" y="0">TROOP DOOR</tspan><tspan class="cls-6" x="0" y="14.4004">(</tspan><tspan class="cls-8" x="4.7109" y="14.4004">T</tspan><tspan x="11.3086" y="14.4004">YPICAL)</tspan></text><path class="cls-4" d="M332.3612,716.8891l7.1391-6.684c.1175-.11.3069-.0819.3874.0575l2.219,3.8434c.0805.1394.0102.3175-.1439.3642l-9.3581,2.8406c-.2532.0769-.4366-.2409-.2435-.4217Z"/><line class="cls-3" x1="340.2742" y1="712.7903" x2="398.5096" y2="678.1452"/><rect class="cls-3" x=".5" y=".5" width="455.2258" height="1080"/></svg>